<?xml version="1.0" encoding="UTF-8"?>
<svg xmlns="http://www.w3.org/2000/svg" width="1800" height="2820" viewBox="0 0 1800 2820" role="img" aria-labelledby="svg-title svg-desc">
  <title id="svg-title">AI 量化交易系统架构</title>
  <desc id="svg-desc">生产架构、数据研究发布链、部署阶段和信任边界的三联静态图；三页均显示 aiq-host-control、aiq-binance-egress、业务零 Binance 路由与 Reserve 到 PermitConsume 唯一发送链。</desc>
  <defs>
    <filter id="shadow" x="-10%" y="-10%" width="120%" height="130%"><feDropShadow dx="0" dy="2" stdDeviation="3" flood-color="#0f172a" flood-opacity="0.12"/></filter>
    <marker id="arrow" markerWidth="10" markerHeight="10" refX="9" refY="3" orient="auto" markerUnits="strokeWidth"><path d="M0,0 L0,6 L9,3 z" fill="#475569"/></marker>
    <marker id="arrow-blue" markerWidth="10" markerHeight="10" refX="9" refY="3" orient="auto" markerUnits="strokeWidth"><path d="M0,0 L0,6 L9,3 z" fill="#2563eb"/></marker>
    <marker id="arrow-green" markerWidth="10" markerHeight="10" refX="9" refY="3" orient="auto" markerUnits="strokeWidth"><path d="M0,0 L0,6 L9,3 z" fill="#15803d"/></marker>
    <marker id="arrow-red" markerWidth="10" markerHeight="10" refX="9" refY="3" orient="auto" markerUnits="strokeWidth"><path d="M0,0 L0,6 L9,3 z" fill="#dc2626"/></marker>
    <marker id="arrow-purple" markerWidth="10" markerHeight="10" refX="9" refY="3" orient="auto" markerUnits="strokeWidth"><path d="M0,0 L0,6 L9,3 z" fill="#7e22ce"/></marker>
    <marker id="arrow-orange" markerWidth="10" markerHeight="10" refX="9" refY="3" orient="auto" markerUnits="strokeWidth"><path d="M0,0 L0,6 L9,3 z" fill="#ea580c"/></marker>
    <marker id="arrow-teal" markerWidth="10" markerHeight="10" refX="9" refY="3" orient="auto" markerUnits="strokeWidth"><path d="M0,0 L0,6 L9,3 z" fill="#0f766e"/></marker>
    <style>
      text { font-family: Inter, "Noto Sans SC", "Microsoft YaHei", sans-serif; fill: #0f172a; }
      .title { font-size: 28px; font-weight: 700; }
      .subtitle { font-size: 14px; fill: #475569; }
      .section { fill: #f8fafc; stroke: #334155; stroke-width: 2; rx: 16; }
      .section-title { font-size: 16px; font-weight: 700; }
      .node { stroke-width: 2; rx: 10; filter: url(#shadow); }
      .blue { fill: #dbeafe; stroke: #2563eb; }
      .indigo { fill: #e0e7ff; stroke: #4f46e5; }
      .green { fill: #dcfce7; stroke: #15803d; }
      .yellow { fill: #fef3c7; stroke: #d97706; }
      .red { fill: #fee2e2; stroke: #dc2626; }
      .purple { fill: #f3e8ff; stroke: #7e22ce; }
      .orange { fill: #ffedd5; stroke: #ea580c; }
      .gray { fill: #e2e8f0; stroke: #64748b; }
      .teal { fill: #ccfbf1; stroke: #0f766e; }
      .label { font-size: 13px; font-weight: 650; text-anchor: middle; }
      .small { font-size: 11px; font-weight: 450; text-anchor: middle; fill: #334155; }
      .tiny { font-size: 10px; text-anchor: middle; fill: #475569; }
      .edge { fill: none; stroke: #475569; stroke-width: 2; marker-end: url(#arrow); }
      .edge-blue { fill: none; stroke: #2563eb; stroke-width: 2; marker-end: url(#arrow-blue); }
      .edge-green { fill: none; stroke: #15803d; stroke-width: 2; marker-end: url(#arrow-green); }
      .edge-red { fill: none; stroke: #dc2626; stroke-width: 2.5; marker-end: url(#arrow-red); }
      .edge-purple { fill: none; stroke: #7e22ce; stroke-width: 2; marker-end: url(#arrow-purple); }
      .edge-orange { fill: none; stroke: #ea580c; stroke-width: 2; marker-end: url(#arrow-orange); }
      .edge-teal { fill: none; stroke: #0f766e; stroke-width: 2; marker-end: url(#arrow-teal); }
      .dash { stroke-dasharray: 7 6; }
      .divider { stroke: #cbd5e1; stroke-width: 2; }
    </style>
  </defs>
  <rect x="0" y="0" width="1800" height="2820" fill="#ffffff"/>

  <!-- Page 1: Production architecture -->
  <g id="page-1-production">
    <text x="35" y="48" class="title">01 · 生产架构</text>
    <text x="35" y="75" class="subtitle">韩国 VPS · 2 vCPU / 12 GiB / 约 200 GB NVMe · 单 VPS 非 HA · 公网入站仅 SSH</text>
    <rect x="260" y="100" width="1250" height="580" class="section"/>
    <text x="285" y="130" class="section-title">aiq-live 生产业务信任域 · Docker Compose · 零 Binance 网络路由</text>

    <rect x="35" y="130" width="185" height="72" class="node yellow"/>
    <text x="127" y="157" class="label">账户所有者</text><text x="127" y="178" class="small">SSH 隧道 · 人工门禁</text>
    <rect x="35" y="235" width="185" height="90" class="node yellow"/>
    <text x="127" y="260" class="label">Telegram</text><text x="127" y="280" class="small">仅接收脱敏通知</text><text x="127" y="299" class="small">无入站命令 / 无确认</text>
    <rect x="35" y="365" width="185" height="90" class="node yellow"/>
    <text x="127" y="390" class="label">本机签名 CLI</text><text x="127" y="410" class="small">Arm / Unlock / 倍率</text><text x="127" y="429" class="small">策略 / 风险变更</text>

    <rect x="305" y="160" width="675" height="205" class="node blue"/>
    <text x="642" y="187" class="label">realtime-engine · 市场热路径 + 单一决策权</text>
    <text x="642" y="207" class="tiny">Codex :00/:30 · Rule :00/:20/:40 · AI 失败立即补位</text>
    <rect x="330" y="235" width="105" height="65" class="node blue"/><text x="382" y="260" class="small">Market</text><text x="382" y="278" class="small">Gateway</text>
    <rect x="455" y="235" width="105" height="65" class="node blue"/><text x="507" y="260" class="small">Local Book</text><text x="507" y="278" class="tiny">U/u/pu</text>
    <rect x="580" y="235" width="105" height="65" class="node blue"/><text x="632" y="260" class="small">Features</text><text x="632" y="278" class="tiny">1m/5m + OF</text>
    <rect x="705" y="235" width="105" height="65" class="node indigo"/><text x="757" y="260" class="small">Scheduler</text><text x="757" y="278" class="tiny">单 authority</text>
    <rect x="830" y="235" width="120" height="65" class="node indigo"/><text x="890" y="260" class="small">Risk</text><text x="890" y="278" class="tiny">Kill Switch</text>
    <text x="642" y="320" class="small">Codex Primary：gpt-5.6 medium · fresh ephemeral process/thread/workspace · 90s / TTL 60s</text>
    <text x="642" y="340" class="small">Rule Fallback：PA + OF 热备；Universe Top10 / 15 分钟 + 候补 + 持仓管理集</text>
    <path d="M435 267 H455" class="edge-blue"/><path d="M560 267 H580" class="edge-blue"/><path d="M685 267 H705" class="edge-blue"/><path d="M810 267 H830" class="edge-blue"/>

    <rect x="1060" y="190" width="260" height="135" class="node red"/>
    <text x="1190" y="218" class="label">execution-service</text><text x="1190" y="240" class="small">唯一 Binance API secret 持有者</text><text x="1190" y="260" class="small">短时不可变预签名请求</text><text x="1190" y="280" class="small">无 Binance route · 不自行发送</text><text x="1190" y="302" class="tiny">0400 secret；gateway 读取失败</text>
    <path d="M980 255 H1060" class="edge-red"/>
    <text x="1020" y="246" class="tiny">OrderIntent</text>

    <rect x="310" y="430" width="170" height="78" class="node yellow"/><text x="395" y="456" class="label">control-service</text><text x="395" y="476" class="small">loopback/private FastAPI</text><text x="395" y="494" class="tiny">Telegram / 飞书仅通知</text>
    <rect x="520" y="430" width="175" height="78" class="node green"/><text x="607" y="456" class="label">persistence-worker</text><text x="607" y="478" class="small">追加事实 / 有界批量写</text>
    <rect x="735" y="430" width="175" height="78" class="node green"/><text x="822" y="456" class="label">archive-service</text><text x="822" y="476" class="small">Parquet · Zstd · SHA-256</text><text x="822" y="494" class="tiny">age/X25519 + SFTP</text>
    <rect x="950" y="430" width="175" height="78" class="node gray"/><text x="1037" y="456" class="label">monitoring</text><text x="1037" y="476" class="small">Prometheus / Alertmanager</text><text x="1037" y="494" class="tiny">签名心跳 push</text>
    <rect x="355" y="555" width="250" height="80" class="node green"/><text x="480" y="582" class="label">PostgreSQL / TimescaleDB</text><text x="480" y="604" class="small">订单 · 成交 · 审批 · 审计事实源</text>
    <rect x="650" y="555" width="145" height="80" class="node gray"/><text x="722" y="582" class="label">Redis</text><text x="722" y="604" class="small">非事实缓存</text>
    <rect x="840" y="555" width="160" height="80" class="node green"/><text x="920" y="582" class="label">原始 L2</text><text x="920" y="604" class="small">≤72h 或 ≤80 GB</text>
    <rect x="1080" y="555" width="205" height="80" class="node red"/><text x="1182" y="581" class="label">最后防线</text><text x="1182" y="602" class="small">交易所原生保护单</text><text x="1182" y="620" class="tiny">主机失联仍生效</text>
    <path d="M607 508 V545 H480 V555" class="edge-green"/><path d="M395 508 V540 H480 V555" class="edge-green"/><path d="M480 595 H650" class="edge dash"/><path d="M822 508 V555" class="edge-green"/><path d="M920 555 V520 H822 V508" class="edge-green"/>
    <path d="M220 280 H310" class="edge"/><path d="M220 410 H280 V469 H310" class="edge"/>

    <rect x="1560" y="155" width="205" height="95" class="node yellow"/>
    <text x="1662" y="183" class="label">Binance USDⓈ-M</text><text x="1662" y="204" class="small">Public · REST</text><text x="1662" y="223" class="small">User Data Stream</text>
    <rect x="1570" y="270" width="185" height="58" class="node purple"/><text x="1662" y="294" class="label">OpenAI Codex</text><text x="1662" y="314" class="small">固定 HTTPS · 无 Binance route</text>
    <rect x="1580" y="345" width="165" height="58" class="node yellow"/><text x="1662" y="370" class="label">飞书</text><text x="1662" y="389" class="small">只通知</text>
    <rect x="1560" y="455" width="205" height="70" class="node gray"/><text x="1662" y="480" class="label">外部心跳</text><text x="1662" y="500" class="small">签名 push · 无控制回调</text>
    <rect x="1575" y="580" width="175" height="64" class="node green"/><text x="1662" y="606" class="label">固定 SFTP</text><text x="1662" y="625" class="small">加密归档接收</text>
    <path d="M1560 190 H1510 V700 H930 V746" class="edge-blue"/><path d="M1320 245 V675 H930 V746" class="edge-red dash"/><path d="M480 469 H1530 V374 H1580" class="edge"/><path d="M1125 469 H1530 V490 H1560" class="edge"/><path d="M910 469 H1500 V612 H1575" class="edge-green"/>

    <rect x="260" y="700" width="1250" height="150" class="section" style="fill:#f0fdfa;stroke:#0f766e"/>
    <text x="285" y="730" class="section-title" style="fill:#134e4a">两个独立持久宿主 project：aiq-host-control + aiq-binance-egress</text>
    <rect x="290" y="755" width="205" height="70" class="node teal"/><text x="392" y="780" class="label">aiq-host-control</text><text x="392" y="800" class="small">rate-budget-service</text><text x="392" y="817" class="tiny">rate.sock · Reserve / PermitConsume</text>
    <rect x="525" y="752" width="220" height="76" class="node green"/><text x="635" y="777" class="label">PostgreSQL</text><text x="635" y="798" class="small">aiq_host_rate_control</text><text x="635" y="817" class="tiny">仅宿主限额事实</text>
    <rect x="775" y="746" width="310" height="88" class="node teal"/><text x="930" y="771" class="label">aiq-binance-egress</text><text x="930" y="792" class="small">唯一 binance-egress-gateway</text><text x="930" y="812" class="tiny">gateway.sock · actual facts → Consume → 单次发送；无 secret</text>
    <rect x="1120" y="746" width="350" height="88" class="node red"/><text x="1295" y="771" class="label">FAIL-CLOSED</text><text x="1295" y="792" class="small">allocator / DB / 任一 UDS / gateway / 业务 DB 故障</text><text x="1295" y="812" class="tiny">零新 Binance 出站；既有原生保护单继续</text>
    <path d="M775 790 H745" class="edge-teal"/><path d="M525 790 H495" class="edge-green"/><path d="M1085 790 H1120" class="edge-red dash"/>
    <path d="M642 365 V680 H392 V755" class="edge-teal dash"/><path d="M1190 325 V680 H392 V755" class="edge-teal dash"/><path d="M930 746 V720 H392 V755" class="edge-teal"/>
    <text x="790" y="675" class="tiny">业务先 Reserve 并提交 gateway；gateway 自行 PermitConsume；只有 gateway 建立 Binance socket/TLS</text>
    <path d="M1295 746 V660 H1182 V635" class="edge-red dash"/>
  </g>

  <line x1="30" y1="880" x2="1770" y2="880" class="divider"/>

  <!-- Page 2: Data, research, release -->
  <g id="page-2-data-research" transform="translate(0 900)">
    <text x="35" y="48" class="title">02 · 数据、月度研究、自动灰度与人工工程发布</text>
    <rect x="30" y="85" width="760" height="570" class="section"/>
    <text x="55" y="118" class="section-title">生产 / 采集域</text>
    <rect x="60" y="155" width="150" height="65" class="node blue"/><text x="135" y="181" class="label">全部 USDT 永续</text><text x="135" y="201" class="small">轻量排名数据</text>
    <rect x="255" y="145" width="200" height="85" class="node indigo"/><text x="355" y="171" class="label">Universe Scorer</text><text x="355" y="191" class="small">30 / 30 / 20 / 10 / 10</text><text x="355" y="210" class="tiny">流动性 · 深度 · 点差 · 活跃 · 健康</text>
    <rect x="510" y="150" width="190" height="75" class="node indigo"/><text x="605" y="176" class="label">Top 10 / 15 分钟</text><text x="605" y="197" class="small">候补 11–15 + 管理集</text>
    <path d="M210 187 H255" class="edge-blue"/><path d="M455 187 H510" class="edge-blue"/>
    <rect x="510" y="275" width="190" height="72" class="node blue"/><text x="605" y="301" class="label">完整深度 + 成交</text><text x="605" y="322" class="small">重建 / 特征 / 决策</text>
    <rect x="485" y="405" width="220" height="82" class="node green"/><text x="595" y="432" class="label">原始 L2 小时切片</text><text x="595" y="453" class="small">Parquet + Zstd + SHA-256</text><text x="595" y="472" class="tiny">≤72h 或 ≤80 GB</text>
    <rect x="250" y="410" width="180" height="72" class="node green"/><text x="340" y="436" class="label">age/X25519</text><text x="340" y="457" class="small">仅持接收方公钥</text>
    <path d="M605 225 V275" class="edge-blue"/><path d="M605 347 V405" class="edge-green"/><path d="M485 446 H430" class="edge-green"/>
    <rect x="70" y="280" width="235" height="85" class="node green"/><text x="187" y="307" class="label">PostgreSQL / TimescaleDB</text><text x="187" y="328" class="small">事实账本 · 清单 · 质量 · 投影</text><text x="187" y="347" class="tiny">Redis 只是可丢弃缓存</text>
    <rect x="55" y="515" width="245" height="75" class="node green"/><text x="177" y="541" class="label">备份 + WAL/PITR</text><text x="177" y="562" class="small">RPO ≤1h · RTO ≤4h</text><text x="177" y="580" class="tiny">恢复固定 RISK_LOCKED</text>
    <path d="M187 365 V515" class="edge-green"/>
    <rect x="335" y="515" width="400" height="75" class="node yellow"/><text x="535" y="541" class="label">删除门禁</text><text x="535" y="562" class="small">仅 REMOTE_VERIFIED 对象可删</text><text x="535" y="580" class="tiny">同步失败时停止删除并告警</text>

    <rect x="850" y="85" width="920" height="570" class="section" style="fill:#faf5ff;stroke:#7e22ce"/>
    <text x="875" y="118" class="section-title" style="fill:#581c87">独立回测 / 研究域 · 无生产密钥 · 无生产写权</text>
    <rect x="875" y="155" width="180" height="82" class="node green"/><text x="965" y="182" class="label">SFTP 接收验证</text><text x="965" y="203" class="small">解密 · 明文哈希</text><text x="965" y="222" class="tiny">签名逐对象回执</text>
    <rect x="1100" y="155" width="180" height="82" class="node purple"/><text x="1190" y="182" class="label">只读数据湖</text><text x="1190" y="203" class="small">90 天 L2 + 历史池</text><text x="1190" y="222" class="tiny">manifest / OOS 封存</text>
    <rect x="1325" y="155" width="175" height="82" class="node purple"/><text x="1412" y="182" class="label">回放 / 回测</text><text x="1412" y="203" class="small">walk-forward / 压力</text>
    <rect x="1515" y="135" width="210" height="112" class="node purple"/><text x="1620" y="161" class="label">月度动态选模 + 研究</text><text x="1620" y="181" class="small">签名官方 catalog</text><text x="1620" y="201" class="small">fresh selector → fresh analysis</text><text x="1620" y="221" class="tiny">quota：每日 03:10 · FIFO · 并发 1</text><text x="1620" y="238" class="tiny">初始 90 天 OBSERVE_ONLY</text>
    <path d="M1055 196 H1100" class="edge-green"/><path d="M1280 196 H1325" class="edge-purple"/><path d="M1500 196 H1540" class="edge-purple"/>
    <path d="M430 446 H800 V196 H875" class="edge-green"/>

    <rect x="1500" y="310" width="190" height="66" class="node purple"/><text x="1595" y="336" class="label">白名单 challenger</text><text x="1595" y="357" class="small">或 EngineeringProposal</text>
    <rect x="1265" y="310" width="190" height="66" class="node yellow"/><text x="1360" y="336" class="label">字段白名单 + 离线门禁</text><text x="1360" y="357" class="small">非白名单转人工</text>
    <rect x="1025" y="305" width="195" height="76" class="node purple"/><text x="1122" y="333" class="label">StrategyPackage</text><text x="1122" y="354" class="small">代码 / 参数 / 数据 / 证据 hash</text>
    <rect x="1025" y="435" width="260" height="75" class="node yellow"/><text x="1155" y="462" class="label">AutoIterationReport</text><text x="1155" y="483" class="small">Shadow → 0.10/24h → 0.50/24h</text>
    <rect x="1350" y="435" width="250" height="75" class="node yellow"/><text x="1475" y="462" class="label">确定性发布控制器</text><text x="1475" y="483" class="small">晋升 1.00 或自动回滚</text>
    <path d="M1632 247 V310" class="edge-purple"/><path d="M1500 343 H1455" class="edge-purple"/><path d="M1265 343 H1220" class="edge-purple"/><path d="M1122 381 V435" class="edge"/><path d="M1285 472 H1350" class="edge"/>
    <rect x="920" y="535" width="790" height="95" class="node purple"/><text x="1315" y="558" class="label">初始：3 日校准 → C0 → 72h 工程门禁 + 87 日 OOS → Day 90 正式统计评估</text><text x="1315" y="580" class="small">月度：签名 catalog → fresh selector → fresh analysis → 白名单 / 离线 / Shadow / 0.10 / 0.50</text><text x="1315" y="602" class="small">quota 每日延期、原 data cutoff、跨月 FIFO/并发1；候选失败恢复 champion</text>

    <rect x="30" y="680" width="760" height="145" class="section" style="fill:#f0fdfa;stroke:#0f766e"/>
    <text x="55" y="709" class="section-title" style="fill:#134e4a">生产 VPS 两个持久宿主 project · 研究域不可访问</text>
    <rect x="55" y="735" width="135" height="64" class="node teal"/><text x="122" y="759" class="label">aiq-host-control</text><text x="122" y="779" class="small">allocator · rate.sock</text>
    <rect x="215" y="732" width="160" height="70" class="node green"/><text x="295" y="756" class="label">PostgreSQL</text><text x="295" y="777" class="tiny">aiq_host_rate_control</text>
    <rect x="400" y="728" width="220" height="78" class="node teal"/><text x="510" y="752" class="label">aiq-binance-egress</text><text x="510" y="773" class="small">唯一 gateway · gateway.sock</text><text x="510" y="793" class="tiny">actual facts → PermitConsume → 单次发送</text>
    <rect x="645" y="728" width="120" height="78" class="node red"/><text x="705" y="751" class="label">故障</text><text x="705" y="771" class="small">零新出站</text><text x="705" y="791" class="tiny">业务零 Binance route</text>
    <path d="M400 767 H375" class="edge-teal"/><path d="M215 767 H190" class="edge-green"/><path d="M620 767 H645" class="edge-red dash"/>
    <path d="M135 220 V655 H510 V728" class="edge-teal dash"/><path d="M605 347 V655 H510 V728" class="edge-teal dash"/>
    <text x="365" y="666" class="tiny">采集业务 Reserve + 提交 gateway；gateway 自行 PermitConsume 后唯一发送；Codex/研究机全离线</text>
  </g>

  <line x1="30" y1="1740" x2="1770" y2="1740" class="divider"/>

  <!-- Page 3: Stages and trust boundaries -->
  <g id="page-3-stages" transform="translate(0 1760)">
    <text x="35" y="48" class="title">03 · 部署阶段与信任边界</text>
    <text x="35" y="75" class="subtitle">阶段业务 project 互斥且零 Binance route；aiq-host-control 与 aiq-binance-egress 是两个独立持久例外</text>
    <rect x="30" y="100" width="1740" height="465" class="section"/>
    <rect x="65" y="155" width="210" height="100" class="node blue"/><text x="170" y="182" class="label">aiq-testnet</text><text x="170" y="203" class="small">Testnet 协议预检</text><text x="170" y="223" class="small">独立 Testnet key</text><text x="170" y="243" class="tiny">零生产凭据</text>
    <rect x="325" y="165" width="145" height="80" class="node yellow"/><text x="397" y="191" class="label">seal / down</text><text x="397" y="212" class="small">受控退役</text><text x="397" y="231" class="tiny">远端验证</text>
    <rect x="520" y="145" width="240" height="120" class="node indigo"/><text x="640" y="172" class="label">aiq-calibration</text><text x="640" y="193" class="small">生产公开行情 · 连续合格 3 日</text><text x="640" y="214" class="small">无 key · 无 execution-service</text><text x="640" y="235" class="small">零 OrderIntent</text>
    <rect x="810" y="155" width="190" height="100" class="node yellow"/><text x="905" y="181" class="label">候选 / 预发布素材</text><text x="905" y="202" class="small">远端逐对象验证</text><text x="905" y="222" class="small">此时不冻结 C0</text>
    <rect x="1050" y="125" width="300" height="160" class="node purple"/><text x="1200" y="151" class="label">aiq-validation</text><text x="1200" y="171" class="small">新 DB 迁移 + 双 lane 预热</text><text x="1200" y="191" class="tiny">未来 effective_at：最终 C0 + release + 短时批准</text><text x="1200" y="209" class="tiny">原子冻结冠军并启动 ≥72h 门禁 / 87 日 OOS</text><rect x="1080" y="225" width="110" height="42" class="node purple"/><text x="1135" y="243" class="small">Shadow lane</text><text x="1135" y="259" class="tiny">公开行情</text><rect x="1210" y="225" width="110" height="42" class="node purple"/><text x="1265" y="243" class="small">Testnet lane</text><text x="1265" y="259" class="tiny">独立事实</text>
    <rect x="1400" y="165" width="145" height="80" class="node yellow"/><text x="1472" y="191" class="label">签名门禁</text><text x="1472" y="212" class="small">down / 退役</text><text x="1472" y="231" class="tiny">零 P0/P1</text>
    <rect x="1585" y="135" width="150" height="140" class="node red"/><text x="1660" y="162" class="label">aiq-live</text><text x="1660" y="184" class="small">全新 network / volume</text><text x="1660" y="204" class="small">全新 DB / queue</text><text x="1660" y="224" class="small">exec 才持生产 key</text><text x="1660" y="245" class="tiny">0.10 → 人工 1.00</text>
    <path d="M275 205 H325" class="edge"/><path d="M470 205 H520" class="edge"/><path d="M760 205 H810" class="edge"/><path d="M1000 205 H1050" class="edge"/><path d="M1350 205 H1400" class="edge"/><path d="M1545 205 H1585" class="edge-red"/>
    <rect x="65" y="315" width="1670" height="155" class="section" style="fill:#f0fdfa;stroke:#0f766e"/>
    <text x="90" y="344" class="section-title" style="fill:#134e4a">两个跨阶段持久宿主 project（均不属于阶段业务 Compose project）</text>
    <rect x="90" y="365" width="200" height="72" class="node teal"/><text x="190" y="390" class="label">aiq-host-control</text><text x="190" y="411" class="small">rate-budget-service · rate.sock</text>
    <rect x="320" y="362" width="210" height="78" class="node green"/><text x="425" y="387" class="label">PostgreSQL</text><text x="425" y="408" class="small">aiq_host_rate_control</text><text x="425" y="427" class="tiny">宿主限额事实</text>
    <rect x="560" y="358" width="250" height="86" class="node teal"/><text x="685" y="383" class="label">aiq-binance-egress</text><text x="685" y="404" class="small">唯一 gateway · gateway.sock</text><text x="685" y="424" class="tiny">无 API secret · 不签名</text>
    <rect x="840" y="354" width="400" height="94" class="node yellow"/><text x="1040" y="379" class="label">每个新请求</text><text x="1040" y="400" class="small">业务 Reserve → gateway request</text><text x="1040" y="421" class="tiny">gateway PermitConsume(actual facts) → 唯一发送</text>
    <rect x="1270" y="354" width="430" height="94" class="node red"/><text x="1485" y="379" class="label">allocator / DB / 任一 UDS / gateway 故障</text><text x="1485" y="400" class="small">零新 Binance 出站 · 业务始终零 route</text><text x="1485" y="421" class="tiny">仅依赖既有交易所原生保护单</text>
    <path d="M560 401 H530" class="edge-teal"/><path d="M320 401 H290" class="edge-green"/><path d="M840 401 H810" class="edge-teal"/><path d="M1240 401 H1270" class="edge-red dash"/>
    <path d="M170 255 V300 H685 V358" class="edge-teal dash"/><path d="M640 265 V300 H685 V358" class="edge-teal dash"/><path d="M1200 285 V300 H685 V358" class="edge-teal dash"/><path d="M1660 275 V300 H685 V358" class="edge-teal dash"/>
    <text x="900" y="520" class="small">阶段业务资源全新且不复用；只有 gateway 可连 Binance；execution 唯一持 secret；两个宿主 project 独立持久</text>

    <g id="p3-upgrade-and-trust" transform="translate(0 180)">
    <rect x="30" y="430" width="1160" height="300" class="section" style="fill:#fff7ed;stroke:#ea580c"/>
    <text x="55" y="465" class="section-title" style="fill:#7c2d12">实盘后：人工工程 C2/C3 + 月度白名单自动灰度两条路径</text>
    <rect x="65" y="520" width="190" height="82" class="node orange"/><text x="160" y="547" class="label">C2/C3 candidate</text><text x="160" y="568" class="small">image / 策略 / 配置 hash</text><text x="160" y="587" class="tiny">不可变 release</text>
    <rect x="310" y="490" width="330" height="145" class="node orange"/><text x="475" y="518" class="label">首选：临时 validation VPS</text><text x="475" y="541" class="small">韩国同区域 · 同 OS / 架构</text><text x="475" y="562" class="small">等效 2 vCPU / 12 GiB / 约 200 GB</text><text x="475" y="583" class="small">Testnet key only · Shadow 公共行情</text><text x="475" y="604" class="tiny">无生产 key / DB / 卷 / 反向控制</text>
    <rect x="690" y="500" width="260" height="125" class="node orange"/><text x="820" y="528" class="label">备选：原主机互斥验证</text><text x="820" y="551" class="small">账户安全归零 · aiq-live 停机</text><text x="820" y="572" class="small">事实保全 / 恢复 / 容量演练通过</text><text x="820" y="597" class="tiny">不得 live 并行</text>
    <rect x="355" y="660" width="275" height="60" class="node yellow"/><text x="492" y="685" class="label">签名验证报告</text><text x="492" y="705" class="small">runner / 规格 / RTT / 资源 / release</text>
    <rect x="715" y="655" width="330" height="70" class="node red"/><text x="880" y="679" class="label">候选失败：人工 BLOCKED / 月度自动回滚</text><text x="880" y="699" class="small">旧 champion 继续 · 本 cycle 不重试</text><text x="880" y="716" class="tiny">quota 延期不属于候选失败</text>
    <path d="M255 561 H310" class="edge-orange"/><path d="M475 635 V660" class="edge-orange"/><path d="M820 625 V645 H630 V660" class="edge-orange"/>

    <rect x="1240" y="430" width="530" height="390" class="section"/>
    <text x="1265" y="465" class="section-title">信任边界</text>
    <rect x="1275" y="495" width="460" height="58" class="node gray"/><text x="1505" y="520" class="label">入站：仅 SSH key authentication</text><text x="1505" y="540" class="small">管理面经 SSH tunnel → loopback/private</text>
    <rect x="1275" y="575" width="460" height="62" class="node gray"/><text x="1505" y="599" class="label">唯一 Binance 出口：gateway</text><text x="1505" y="620" class="small">韩国 VPS 直接连接；Bot/API/业务容器不能改变出口</text>
    <rect x="1275" y="660" width="460" height="58" class="node red"/><text x="1505" y="685" class="label">API secret 仅 execution-service</text><text x="1505" y="705" class="small">gateway 无 secret / 不签名；Codex 与研究机离线</text>
    <rect x="1275" y="735" width="460" height="72" class="node teal"/><text x="1505" y="759" class="label">Reserve → gateway → PermitConsume → send</text><text x="1505" y="780" class="small">业务零 Binance route；任一依赖故障即零新出站</text><text x="1505" y="799" class="tiny">已在交易所生效的原生保护单继续</text>
    </g>
  </g>
</svg>
